<?xml version="1.0" standalone="no"?>
<!DOCTYPE svg PUBLIC "-//W3C//DTD SVG 20010904//EN"
 "http://www.w3.org/TR/2001/REC-SVG-20010904/DTD/svg10.dtd">
<svg version="1.0" xmlns="http://www.w3.org/2000/svg"
 width="512.000000pt" height="512.000000pt" viewBox="0 0 512.000000 512.000000"
 preserveAspectRatio="xMidYMid meet">
<metadata>
Created by potrace 1.14, written by Peter Selinger 2001-2017
</metadata>
<g transform="translate(0.000000,512.000000) scale(0.100000,-0.100000)"
fill="#000000" stroke="none">
<path d="M1850 5077 c-118 -62 -788 -453 -800 -466 -13 -15 -15 -235 -14
-1855 l1 -1838 24 -18 c13 -10 73 -47 134 -82 60 -35 119 -68 130 -75 11 -7
27 -15 34 -19 8 -4 114 -65 234 -136 121 -70 221 -128 222 -128 3 0 105 -59
155 -90 8 -5 80 -46 159 -92 79 -46 160 -93 180 -104 43 -26 149 -87 208 -121
l42 -24 102 58 c55 32 122 70 147 85 26 16 56 32 67 38 11 6 36 20 55 31 19
12 125 74 235 138 110 64 209 121 220 128 11 7 27 15 35 19 8 4 42 24 75 44
33 20 85 50 115 67 138 77 446 257 460 269 13 11 15 122 14 889 -1 850 -1 878
-20 889 -10 6 -42 25 -71 41 -65 37 -216 125 -638 370 -181 106 -388 226 -460
267 -139 80 -396 228 -406 234 -3 2 -6 -215 -6 -482 l0 -486 36 -23 c20 -12
185 -109 366 -214 182 -105 336 -195 344 -200 11 -7 14 -77 15 -399 l1 -390
-75 -45 c-266 -157 -599 -347 -610 -347 -22 0 -678 385 -682 400 -2 8 -3 840
-3 1847 0 1008 0 1833 0 1833 0 0 -11 -6 -25 -13z"/>
</g>
</svg>
